{
  "accessors": [
    {
      "bufferView": 0,
      "byteOffset": 0,
      "componentType": 5125,
      "normalized": false,
      "count": 960,
      "type": "SCALAR",
      "max": [
        159
      ],
      "min": [
        0
      ]
    },
    {
      "bufferView": 1,
      "byteOffset": 0,
      "componentType": 5126,
      "normalized": false,
      "count": 160,
      "type": "VEC3",
      "max": [
        0.49950000643730164,
        0.49950000643730164,
        5.99399995803833
      ],
      "min": [
        -0.49950000643730164,
        -0.49950000643730164,
        0.059939999133348465
      ]
    },
    {
      "bufferView": 2,
      "byteOffset": 0,
      "componentType": 5125,
      "normalized": false,
      "count": 960,
      "type": "SCALAR",
      "max": [
        159
      ],
      "min": [
        0
      ]
    },
    {
      "bufferView": 3,
      "byteOffset": 0,
      "componentType": 5126,
      "normalized": false,
      "count": 160,
      "type": "VEC3",
      "max": [
        0.49950000643730164,
        0.49950000643730164,
        -0.059939999133348465
      ],
      "min": [
        -0.49950000643730164,
        -0.49950000643730164,
        -5.99399995803833
      ]
    },
    {
      "bufferView": 4,
      "byteOffset": 0,
      "componentType": 5125,
      "normalized": false,
      "count": 576,
      "type": "SCALAR",
      "max": [
        95
      ],
      "min": [
        0
      ]
    },
    {
      "bufferView": 5,
      "byteOffset": 0,
      "componentType": 5126,
      "normalized": false,
      "count": 96,
      "type": "VEC3",
      "max": [
        0.599399983882904,
        0.599399983882904,
        5.99399995803833
      ],
      "min": [
        -0.599399983882904,
        -0.599399983882904,
        0.9990000128746033
      ]
    },
    {
      "bufferView": 6,
      "byteOffset": 0,
      "componentType": 5125,
      "normalized": false,
      "count": 576,
      "type": "SCALAR",
      "max": [
        95
      ],
      "min": [
        0
      ]
    },
    {
      "bufferView": 7,
      "byteOffset": 0,
      "componentType": 5126,
      "normalized": false,
      "count": 96,
      "type": "VEC3",
      "max": [
        0.599399983882904,
        0.599399983882904,
        -0.9990000128746033
      ],
      "min": [
        -0.599399983882904,
        -0.599399983882904,
        -5.99399995803833
      ]
    }
  ],
  "asset": {
    "generator": "pygltflib@v1.16.0",
    "version": "2.0"
  },
  "bufferViews": [
    {
      "buffer": 0,
      "byteOffset": 0,
      "byteLength": 3840,
      "target": 34963
    },
    {
      "buffer": 0,
      "byteOffset": 3840,
      "byteLength": 1920,
      "target": 34962
    },
    {
      "buffer": 1,
      "byteOffset": 0,
      "byteLength": 3840,
      "target": 34963
    },
    {
      "buffer": 1,
      "byteOffset": 3840,
      "byteLength": 1920,
      "target": 34962
    },
    {
      "buffer": 2,
      "byteOffset": 0,
      "byteLength": 2304,
      "target": 34963
    },
    {
      "buffer": 2,
      "byteOffset": 2304,
      "byteLength": 1152,
      "target": 34962
    },
    {
      "buffer": 3,
      "byteOffset": 0,
      "byteLength": 2304,
      "target": 34963
    },
    {
      "buffer": 3,
      "byteOffset": 2304,
      "byteLength": 1152,
      "target": 34962
    }
  ],
  "buffers": [
    {
      "uri": "data:application/octet-stream;base64,",
      "byteLength": 5760
    },
    {
      "uri": "data:application/octet-stream;base64,",
      "byteLength": 5760
    },
    {
      "uri": "data:application/octet-stream;base64,",
      "byteLength": 3456
    },
    {
      "uri": "data:application/octet-stream;base64,",
      "byteLength": 3456
    }
  ],
  "materials": [
    {
      "pbrMetallicRoughness": {
        "baseColorFactor": [
          0.058823529411764705,
          0.1843137254901961,
          0.1843137254901961,
          1.0
        ],
        "metallicFactor": 0.08503754219137083,
        "roughnessFactor": 0.5959275588457431
      },
      "emissiveFactor": [
        0.0,
        0.0,
        0.0
      ],
      "alphaMode": "OPAQUE",
      "alphaCutoff": 0.5,
      "doubleSided": false
    },
    {
      "pbrMetallicRoughness": {
        "baseColorFactor": [
          0.058823529411764705,
          0.1843137254901961,
          0.1843137254901961,
          1.0
        ],
        "metallicFactor": 0.020020644842943237,
        "roughnessFactor": 0.5984741524173541
      },
      "emissiveFactor": [
        0.0,
        0.0,
        0.0
      ],
      "alphaMode": "OPAQUE",
      "alphaCutoff": 0.5,
      "doubleSided": false
    },
    {
      "pbrMetallicRoughness": {
        "baseColorFactor": [
          0.058823529411764705,
          0.1843137254901961,
          0.1843137254901961,
          1.0
        ],
        "metallicFactor": 0.10630600934489634,
        "roughnessFactor": 0.5190394485470441
      },
      "emissiveFactor": [
        0.0,
        0.0,
        0.0
      ],
      "alphaMode": "OPAQUE",
      "alphaCutoff": 0.5,
      "doubleSided": false
    },
    {
      "pbrMetallicRoughness": {
        "baseColorFactor": [
          0.058823529411764705,
          0.1843137254901961,
          0.1843137254901961,
          1.0
        ],
        "metallicFactor": 0.18792439360166555,
        "roughnessFactor": 0.5076906673348108
      },
      "emissiveFactor": [
        0.0,
        0.0,
        0.0
      ],
      "alphaMode": "OPAQUE",
      "alphaCutoff": 0.5,
      "doubleSided": false
    }
  ],
  "meshes": [
    {
      "primitives": [
        {
          "attributes": {
            "POSITION": 1
          },
          "indices": 0,
          "mode": 4,
          "material": 0
        }
      ]
    },
    {
      "primitives": [
        {
          "attributes": {
            "POSITION": 3
          },
          "indices": 2,
          "mode": 4,
          "material": 1
        }
      ]
    },
    {
      "primitives": [
        {
          "attributes": {
            "POSITION": 5
          },
          "indices": 4,
          "mode": 4,
          "material": 2
        }
      ]
    },
    {
      "primitives": [
        {
          "attributes": {
            "POSITION": 7
          },
          "indices": 6,
          "mode": 4,
          "material": 3
        }
      ]
    }
  ],
  "nodes": [
    {
      "mesh": 0,
      "rotation": [
        0.0,
        0.0,
        0.0,
        1.0
      ],
      "translation": [
        0.0,
        0.0,
        0.0
      ],
      "name": "NozzleW_right_0"
    },
    {
      "mesh": 1,
      "rotation": [
        0.0,
        0.0,
        0.0,
        1.0
      ],
      "translation": [
        0.0,
        0.0,
        0.0
      ],
      "name": "NozzleW_left_0"
    },
    {
      "mesh": 2,
      "rotation": [
        0.0,
        0.0,
        0.0,
        1.0
      ],
      "translation": [
        0.0,
        0.0,
        0.0
      ],
      "name": "NozzleBCH_right_0"
    },
    {
      "mesh": 3,
      "rotation": [
        0.0,
        0.0,
        0.0,
        1.0
      ],
      "translation": [
        0.0,
        0.0,
        0.0
      ],
      "name": "NozzleBCH_left_0"
    }
  ],
  "scene": 0,
  "scenes": [
    {
      "nodes": [
        0,
        1,
        2,
        3
      ]
    }
  ]
}