{
  "accessors": [
    {
      "bufferView": 0,
      "byteOffset": 0,
      "componentType": 5125,
      "normalized": false,
      "count": 384,
      "type": "SCALAR",
      "max": [
        63
      ],
      "min": [
        0
      ]
    },
    {
      "bufferView": 1,
      "byteOffset": 0,
      "componentType": 5126,
      "normalized": false,
      "count": 64,
      "type": "VEC3",
      "max": [
        1.7693289518356323,
        1.7693289518356323,
        2.567629814147949
      ],
      "min": [
        -1.7693289518356323,
        -1.7693289518356323,
        -2.567629814147949
      ]
    },
    {
      "bufferView": 2,
      "byteOffset": 0,
      "componentType": 5125,
      "normalized": false,
      "count": 384,
      "type": "SCALAR",
      "max": [
        63
      ],
      "min": [
        0
      ]
    },
    {
      "bufferView": 3,
      "byteOffset": 0,
      "componentType": 5126,
      "normalized": false,
      "count": 64,
      "type": "VEC3",
      "max": [
        1.49698805809021,
        1.49698805809021,
        2.559720039367676
      ],
      "min": [
        -1.49698805809021,
        -1.49698805809021,
        -2.559720039367676
      ]
    },
    {
      "bufferView": 4,
      "byteOffset": 0,
      "componentType": 5125,
      "normalized": false,
      "count": 384,
      "type": "SCALAR",
      "max": [
        63
      ],
      "min": [
        0
      ]
    },
    {
      "bufferView": 5,
      "byteOffset": 0,
      "componentType": 5126,
      "normalized": false,
      "count": 64,
      "type": "VEC3",
      "max": [
        1.6289081573486328,
        1.6289081573486328,
        2.264904022216797
      ],
      "min": [
        -1.6289081573486328,
        -1.6289081573486328,
        -2.264904022216797
      ]
    },
    {
      "bufferView": 6,
      "byteOffset": 0,
      "componentType": 5125,
      "normalized": false,
      "count": 384,
      "type": "SCALAR",
      "max": [
        63
      ],
      "min": [
        0
      ]
    },
    {
      "bufferView": 7,
      "byteOffset": 0,
      "componentType": 5126,
      "normalized": false,
      "count": 64,
      "type": "VEC3",
      "max": [
        1.7638163566589355,
        1.7638163566589355,
        2.559720039367676
      ],
      "min": [
        -1.7638163566589355,
        -1.7638163566589355,
        -2.559720039367676
      ]
    },
    {
      "bufferView": 8,
      "byteOffset": 0,
      "componentType": 5125,
      "normalized": false,
      "count": 384,
      "type": "SCALAR",
      "max": [
        63
      ],
      "min": [
        0
      ]
    },
    {
      "bufferView": 9,
      "byteOffset": 0,
      "componentType": 5126,
      "normalized": false,
      "count": 64,
      "type": "VEC3",
      "max": [
        1.7608283758163452,
        1.7608283758163452,
        0.0014939999673515558
      ],
      "min": [
        -1.7608283758163452,
        -1.7608283758163452,
        -0.0014939999673515558
      ]
    }
  ],
  "asset": {
    "generator": "pygltflib@v1.16.0",
    "version": "2.0"
  },
  "bufferViews": [
    {
      "buffer": 0,
      "byteOffset": 0,
      "byteLength": 1536,
      "target": 34963
    },
    {
      "buffer": 0,
      "byteOffset": 1536,
      "byteLength": 768,
      "target": 34962
    },
    {
      "buffer": 1,
      "byteOffset": 0,
      "byteLength": 1536,
      "target": 34963
    },
    {
      "buffer": 1,
      "byteOffset": 1536,
      "byteLength": 768,
      "target": 34962
    },
    {
      "buffer": 2,
      "byteOffset": 0,
      "byteLength": 1536,
      "target": 34963
    },
    {
      "buffer": 2,
      "byteOffset": 1536,
      "byteLength": 768,
      "target": 34962
    },
    {
      "buffer": 3,
      "byteOffset": 0,
      "byteLength": 1536,
      "target": 34963
    },
    {
      "buffer": 3,
      "byteOffset": 1536,
      "byteLength": 768,
      "target": 34962
    },
    {
      "buffer": 4,
      "byteOffset": 0,
      "byteLength": 1536,
      "target": 34963
    },
    {
      "buffer": 4,
      "byteOffset": 1536,
      "byteLength": 768,
      "target": 34962
    }
  ],
  "buffers": [
    {
      "uri": "data:application/octet-stream;base64,",
      "byteLength": 2304
    },
    {
      "uri": "data:application/octet-stream;base64,",
      "byteLength": 2304
    },
    {
      "uri": "data:application/octet-stream;base64,",
      "byteLength": 2304
    },
    {
      "uri": "data:application/octet-stream;base64,",
      "byteLength": 2304
    },
    {
      "uri": "data:application/octet-stream;base64,",
      "byteLength": 2304
    }
  ],
  "materials": [
    {
      "pbrMetallicRoughness": {
        "baseColorFactor": [
          0.4980392156862745,
          0.4980392156862745,
          0.4980392156862745,
          1.0
        ],
        "metallicFactor": 0.08964787950638574,
        "roughnessFactor": 0.5457478051731834
      },
      "emissiveFactor": [
        0.0,
        0.0,
        0.0
      ],
      "alphaMode": "OPAQUE",
      "alphaCutoff": 0.5,
      "doubleSided": false
    },
    {
      "pbrMetallicRoughness": {
        "baseColorFactor": [
          0.4980392156862745,
          0.4980392156862745,
          0.4980392156862745,
          1.0
        ],
        "metallicFactor": 0.07821814472685784,
        "roughnessFactor": 0.525605652759275
      },
      "emissiveFactor": [
        0.0,
        0.0,
        0.0
      ],
      "alphaMode": "OPAQUE",
      "alphaCutoff": 0.5,
      "doubleSided": false
    },
    {
      "pbrMetallicRoughness": {
        "baseColorFactor": [
          0.4980392156862745,
          0.4980392156862745,
          0.4980392156862745,
          1.0
        ],
        "metallicFactor": 0.03080712375344277,
        "roughnessFactor": 0.5801915088533525
      },
      "emissiveFactor": [
        0.0,
        0.0,
        0.0
      ],
      "alphaMode": "OPAQUE",
      "alphaCutoff": 0.5,
      "doubleSided": false
    },
    {
      "pbrMetallicRoughness": {
        "baseColorFactor": [
          0.4980392156862745,
          0.4980392156862745,
          0.4980392156862745,
          1.0
        ],
        "metallicFactor": 0.17589753254508697,
        "roughnessFactor": 0.5637168513936118
      },
      "emissiveFactor": [
        0.0,
        0.0,
        0.0
      ],
      "alphaMode": "OPAQUE",
      "alphaCutoff": 0.5,
      "doubleSided": false
    },
    {
      "pbrMetallicRoughness": {
        "baseColorFactor": [
          0.4980392156862745,
          0.4980392156862745,
          0.4980392156862745,
          1.0
        ],
        "metallicFactor": 0.08752527832397712,
        "roughnessFactor": 0.529648607424663
      },
      "emissiveFactor": [
        0.0,
        0.0,
        0.0
      ],
      "alphaMode": "OPAQUE",
      "alphaCutoff": 0.5,
      "doubleSided": false
    }
  ],
  "meshes": [
    {
      "primitives": [
        {
          "attributes": {
            "POSITION": 1
          },
          "indices": 0,
          "mode": 4,
          "material": 0
        }
      ]
    },
    {
      "primitives": [
        {
          "attributes": {
            "POSITION": 3
          },
          "indices": 2,
          "mode": 4,
          "material": 1
        }
      ]
    },
    {
      "primitives": [
        {
          "attributes": {
            "POSITION": 5
          },
          "indices": 4,
          "mode": 4,
          "material": 2
        }
      ]
    },
    {
      "primitives": [
        {
          "attributes": {
            "POSITION": 7
          },
          "indices": 6,
          "mode": 4,
          "material": 3
        }
      ]
    },
    {
      "primitives": [
        {
          "attributes": {
            "POSITION": 9
          },
          "indices": 8,
          "mode": 4,
          "material": 4
        }
      ]
    }
  ],
  "nodes": [
    {
      "mesh": 0,
      "rotation": [
        0.0,
        0.0,
        0.0,
        1.0
      ],
      "translation": [
        0.0,
        0.0,
        0.0
      ],
      "name": "Solenoid_0"
    },
    {
      "mesh": 1,
      "rotation": [
        0.0,
        0.0,
        0.0,
        1.0
      ],
      "translation": [
        0.0,
        0.0,
        0.0
      ],
      "name": "SolenoidBarrel_layer0_slice0_0"
    },
    {
      "mesh": 2,
      "rotation": [
        0.0,
        0.0,
        0.0,
        1.0
      ],
      "translation": [
        0.0,
        0.0,
        0.0
      ],
      "name": "SolenoidBarrel_layer1_slice0_0"
    },
    {
      "mesh": 3,
      "rotation": [
        0.0,
        0.0,
        0.0,
        1.0
      ],
      "translation": [
        0.0,
        0.0,
        0.0
      ],
      "name": "SolenoidBarrel_layer2_slice0_0"
    },
    {
      "mesh": 4,
      "rotation": [
        0.0,
        0.0,
        0.0,
        1.0
      ],
      "translation": [
        0.0,
        0.0,
        2.56775
      ],
      "name": "SolenoidEndcaps_layer0_slice0_0"
    },
    {
      "mesh": 4,
      "rotation": [
        6.123233995736767e-17,
        1.0,
        6.123233995736766e-17,
        6.123233995736766e-17
      ],
      "translation": [
        0.0,
        0.0,
        -2.56775
      ],
      "name": "SolenoidEndcaps_layer0_slice0_1"
    }
  ],
  "scene": 0,
  "scenes": [
    {
      "nodes": [
        0,
        1,
        2,
        3,
        4,
        5
      ]
    }
  ]
}