{
    "asset" : {
        "generator" : "Khronos glTF Blender I/O v1.6.16",
        "version" : "2.0"
    },
    "scene" : 0,
    "scenes" : [
        {
            "name" : "Scene",
            "nodes" : [
                0
            ]
        }
    ],
    "nodes" : [
        {
            "mesh" : 0,
            "name" : "BeampipeInner_0"
        }
    ],
    "materials" : [
        {
            "name" : "Material_0.010",
            "pbrMetallicRoughness" : {
                "baseColorFactor" : [
                    0.49803921580314636,
                    0.49803921580314636,
                    0.49803921580314636,
                    1
                ],
                "metallicFactor" : 0.0313318707048893,
                "roughnessFactor" : 0.5418310165405273
            }
        },
        {
            "name" : "Material_0.013",
            "pbrMetallicRoughness" : {
                "baseColorFactor" : [
                    0.49803921580314636,
                    0.49803921580314636,
                    0.49803921580314636,
                    1
                ],
                "metallicFactor" : 0.0313318707048893,
                "roughnessFactor" : 0.5418310165405273
            }
        }
    ],
    "meshes" : [
        {
            "name" : "Mesh_0",
            "primitives" : [
                {
                    "attributes" : {
                        "POSITION" : 0,
                        "NORMAL" : 1,
                        "TEXCOORD_0" : 2
                    },
                    "indices" : 3,
                    "material" : 0
                },
                {
                    "attributes" : {
                        "POSITION" : 4,
                        "NORMAL" : 5,
                        "TEXCOORD_0" : 6
                    },
                    "indices" : 7,
                    "material" : 1
                }
            ]
        }
    ],
    "accessors" : [
        {
            "bufferView" : 0,
            "componentType" : 5126,
            "count" : 1126,
            "max" : [
                0.017782200127840042,
                0.017782200127840042,
                5.99399995803833
            ],
            "min" : [
                -0.017782200127840042,
                -0.017782200127840042,
                -5.99399995803833
            ],
            "type" : "VEC3"
        },
        {
            "bufferView" : 1,
            "componentType" : 5126,
            "count" : 1126,
            "type" : "VEC3"
        },
        {
            "bufferView" : 2,
            "componentType" : 5126,
            "count" : 1126,
            "type" : "VEC2"
        },
        {
            "bufferView" : 3,
            "componentType" : 5123,
            "count" : 1152,
            "type" : "SCALAR"
        },
        {
            "bufferView" : 4,
            "componentType" : 5126,
            "count" : 1129,
            "max" : [
                0.017782200127840042,
                0.017782200127840042,
                11.98799991607666
            ],
            "min" : [
                -0.017782200127840042,
                -0.017782200127840042,
                -11.98799991607666
            ],
            "type" : "VEC3"
        },
        {
            "bufferView" : 5,
            "componentType" : 5126,
            "count" : 1129,
            "type" : "VEC3"
        },
        {
            "bufferView" : 6,
            "componentType" : 5126,
            "count" : 1129,
            "type" : "VEC2"
        },
        {
            "bufferView" : 7,
            "componentType" : 5123,
            "count" : 1152,
            "type" : "SCALAR"
        }
    ],
    "bufferViews" : [
        {
            "buffer" : 0,
            "byteLength" : 13512,
            "byteOffset" : 0
        },
        {
            "buffer" : 0,
            "byteLength" : 13512,
            "byteOffset" : 13512
        },
        {
            "buffer" : 0,
            "byteLength" : 9008,
            "byteOffset" : 27024
        },
        {
            "buffer" : 0,
            "byteLength" : 2304,
            "byteOffset" : 36032
        },
        {
            "buffer" : 0,
            "byteLength" : 13548,
            "byteOffset" : 38336
        },
        {
            "buffer" : 0,
            "byteLength" : 13548,
            "byteOffset" : 51884
        },
        {
            "buffer" : 0,
            "byteLength" : 9032,
            "byteOffset" : 65432
        },
        {
            "buffer" : 0,
            "byteLength" : 2304,
            "byteOffset" : 74464
        }
    ],
    "buffers" : [
        {
            "byteLength" : 76768,
            "uri" : "data:application/octet-stream;base64,"
        }
    ]
}
