{
    "asset" : {
        "generator" : "Khronos glTF Blender I/O v1.6.16",
        "version" : "2.0"
    },
    "scene" : 0,
    "scenes" : [
        {
            "name" : "Scene",
            "nodes" : [
                0
            ]
        }
    ],
    "nodes" : [
        {
            "mesh" : 0,
            "name" : "Cylinder.001",
            "rotation" : [
                0.7071068286895752,
                0,
                0,
                -0.7071068286895752
            ],
            "scale" : [
                1,
                3.657719373703003,
                1
            ]
        }
    ],
    "materials" : [
        {
            "name" : "Material_0.014",
            "pbrMetallicRoughness" : {
                "baseColorFactor" : [
                    0.05882352963089943,
                    0.18431372940540314,
                    0.18431372940540314,
                    1
                ],
                "metallicFactor" : 0.16663208603858948,
                "roughnessFactor" : 0.5170994997024536
            }
        }
    ],
    "meshes" : [
        {
            "name" : "Cylinder.003",
            "primitives" : [
                {
                    "attributes" : {
                        "POSITION" : 0,
                        "NORMAL" : 1,
                        "TEXCOORD_0" : 2
                    },
                    "indices" : 3,
                    "material" : 0
                }
            ]
        }
    ],
    "accessors" : [
        {
            "bufferView" : 0,
            "componentType" : 5126,
            "count" : 6304,
            "max" : [
                0.5968904495239258,
                1.6386620998382568,
                0.5968903303146362
            ],
            "min" : [
                -0.5968904495239258,
                -1.6386620998382568,
                -0.5968905687332153
            ],
            "type" : "VEC3"
        },
        {
            "bufferView" : 1,
            "componentType" : 5126,
            "count" : 6304,
            "type" : "VEC3"
        },
        {
            "bufferView" : 2,
            "componentType" : 5126,
            "count" : 6304,
            "type" : "VEC2"
        },
        {
            "bufferView" : 3,
            "componentType" : 5123,
            "count" : 10800,
            "type" : "SCALAR"
        }
    ],
    "bufferViews" : [
        {
            "buffer" : 0,
            "byteLength" : 75648,
            "byteOffset" : 0
        },
        {
            "buffer" : 0,
            "byteLength" : 75648,
            "byteOffset" : 75648
        },
        {
            "buffer" : 0,
            "byteLength" : 50432,
            "byteOffset" : 151296
        },
        {
            "buffer" : 0,
            "byteLength" : 21600,
            "byteOffset" : 201728
        }
    ],
    "buffers" : [
        {
            "byteLength" : 223328,
            "uri" : "data:application/octet-stream;base64,"
        }
    ]
}
