{
    "asset" : {
        "generator" : "Khronos glTF Blender I/O v1.6.16",
        "version" : "2.0"
    },
    "scene" : 0,
    "scenes" : [
        {
            "name" : "Scene",
            "nodes" : [
                0
            ]
        }
    ],
    "nodes" : [
        {
            "mesh" : 0,
            "name" : "Solenoid_0"
        }
    ],
    "materials" : [
        {
            "name" : "Material_0.019",
            "pbrMetallicRoughness" : {
                "baseColorFactor" : [
                    0.49803921580314636,
                    0.49803921580314636,
                    0.49803921580314636,
                    1
                ],
                "metallicFactor" : 0.11800092458724976,
                "roughnessFactor" : 0.5678775310516357
            }
        },
        {
            "name" : "Material_1.017",
            "pbrMetallicRoughness" : {
                "baseColorFactor" : [
                    0.49803921580314636,
                    0.49803921580314636,
                    0.49803921580314636,
                    1
                ],
                "metallicFactor" : 0.1317686140537262,
                "roughnessFactor" : 0.548791766166687
            }
        },
        {
            "name" : "Material_2.017",
            "pbrMetallicRoughness" : {
                "baseColorFactor" : [
                    0.49803921580314636,
                    0.49803921580314636,
                    0.49803921580314636,
                    1
                ],
                "metallicFactor" : 0.17792277038097382,
                "roughnessFactor" : 0.5366703867912292
            }
        },
        {
            "name" : "Material_3.016",
            "pbrMetallicRoughness" : {
                "baseColorFactor" : [
                    0.49803921580314636,
                    0.49803921580314636,
                    0.49803921580314636,
                    1
                ],
                "metallicFactor" : 0.03373396769165993,
                "roughnessFactor" : 0.5907150506973267
            }
        },
        {
            "name" : "Material_4.015",
            "pbrMetallicRoughness" : {
                "baseColorFactor" : [
                    0.49803921580314636,
                    0.49803921580314636,
                    0.49803921580314636,
                    1
                ],
                "metallicFactor" : 0.18125863373279572,
                "roughnessFactor" : 0.5965253114700317
            }
        }
    ],
    "meshes" : [
        {
            "name" : "Mesh_0.013",
            "primitives" : [
                {
                    "attributes" : {
                        "POSITION" : 0,
                        "NORMAL" : 1,
                        "TEXCOORD_0" : 2
                    },
                    "indices" : 3,
                    "material" : 0
                },
                {
                    "attributes" : {
                        "POSITION" : 4,
                        "NORMAL" : 5,
                        "TEXCOORD_0" : 6
                    },
                    "indices" : 7,
                    "material" : 1
                },
                {
                    "attributes" : {
                        "POSITION" : 8,
                        "NORMAL" : 9,
                        "TEXCOORD_0" : 10
                    },
                    "indices" : 11,
                    "material" : 2
                },
                {
                    "attributes" : {
                        "POSITION" : 12,
                        "NORMAL" : 13,
                        "TEXCOORD_0" : 14
                    },
                    "indices" : 15,
                    "material" : 3
                },
                {
                    "attributes" : {
                        "POSITION" : 16,
                        "NORMAL" : 17,
                        "TEXCOORD_0" : 18
                    },
                    "indices" : 19,
                    "material" : 4
                }
            ]
        }
    ],
    "accessors" : [
        {
            "bufferView" : 0,
            "componentType" : 5126,
            "count" : 272,
            "max" : [
                1.7693289518356323,
                1.7693289518356323,
                2.3061439990997314
            ],
            "min" : [
                -1.7693289518356323,
                -1.7693289518356323,
                -2.3061439990997314
            ],
            "type" : "VEC3"
        },
        {
            "bufferView" : 1,
            "componentType" : 5126,
            "count" : 272,
            "type" : "VEC3"
        },
        {
            "bufferView" : 2,
            "componentType" : 5126,
            "count" : 272,
            "type" : "VEC2"
        },
        {
            "bufferView" : 3,
            "componentType" : 5123,
            "count" : 312,
            "type" : "SCALAR"
        },
        {
            "bufferView" : 4,
            "componentType" : 5126,
            "count" : 230,
            "max" : [
                1.49698805809021,
                1.49698805809021,
                2.2976725101470947
            ],
            "min" : [
                -1.49698805809021,
                -1.49698805809021,
                -2.2976725101470947
            ],
            "type" : "VEC3"
        },
        {
            "bufferView" : 5,
            "componentType" : 5126,
            "count" : 230,
            "type" : "VEC3"
        },
        {
            "bufferView" : 6,
            "componentType" : 5126,
            "count" : 230,
            "type" : "VEC2"
        },
        {
            "bufferView" : 7,
            "componentType" : 5123,
            "count" : 288,
            "type" : "SCALAR"
        },
        {
            "bufferView" : 8,
            "componentType" : 5126,
            "count" : 226,
            "max" : [
                1.6289081573486328,
                1.6289081573486328,
                2.264904022216797
            ],
            "min" : [
                -1.6289081573486328,
                -1.6289081573486328,
                -2.264904022216797
            ],
            "type" : "VEC3"
        },
        {
            "bufferView" : 9,
            "componentType" : 5126,
            "count" : 226,
            "type" : "VEC3"
        },
        {
            "bufferView" : 10,
            "componentType" : 5126,
            "count" : 226,
            "type" : "VEC2"
        },
        {
            "bufferView" : 11,
            "componentType" : 5123,
            "count" : 288,
            "type" : "SCALAR"
        },
        {
            "bufferView" : 12,
            "componentType" : 5126,
            "count" : 223,
            "max" : [
                1.7638163566589355,
                1.7638163566589355,
                2.2976725101470947
            ],
            "min" : [
                -1.7638163566589355,
                -1.7638163566589355,
                -2.2976725101470947
            ],
            "type" : "VEC3"
        },
        {
            "bufferView" : 13,
            "componentType" : 5126,
            "count" : 223,
            "type" : "VEC3"
        },
        {
            "bufferView" : 14,
            "componentType" : 5126,
            "count" : 223,
            "type" : "VEC2"
        },
        {
            "bufferView" : 15,
            "componentType" : 5123,
            "count" : 288,
            "type" : "SCALAR"
        },
        {
            "bufferView" : 16,
            "componentType" : 5126,
            "count" : 483,
            "max" : [
                1.7608283758163452,
                1.7608283758163452,
                2.3061439990997314
            ],
            "min" : [
                -1.7608283758163452,
                -1.7608283758163452,
                -2.3061439990997314
            ],
            "type" : "VEC3"
        },
        {
            "bufferView" : 17,
            "componentType" : 5126,
            "count" : 483,
            "type" : "VEC3"
        },
        {
            "bufferView" : 18,
            "componentType" : 5126,
            "count" : 483,
            "type" : "VEC2"
        },
        {
            "bufferView" : 19,
            "componentType" : 5123,
            "count" : 576,
            "type" : "SCALAR"
        }
    ],
    "bufferViews" : [
        {
            "buffer" : 0,
            "byteLength" : 3264,
            "byteOffset" : 0
        },
        {
            "buffer" : 0,
            "byteLength" : 3264,
            "byteOffset" : 3264
        },
        {
            "buffer" : 0,
            "byteLength" : 2176,
            "byteOffset" : 6528
        },
        {
            "buffer" : 0,
            "byteLength" : 624,
            "byteOffset" : 8704
        },
        {
            "buffer" : 0,
            "byteLength" : 2760,
            "byteOffset" : 9328
        },
        {
            "buffer" : 0,
            "byteLength" : 2760,
            "byteOffset" : 12088
        },
        {
            "buffer" : 0,
            "byteLength" : 1840,
            "byteOffset" : 14848
        },
        {
            "buffer" : 0,
            "byteLength" : 576,
            "byteOffset" : 16688
        },
        {
            "buffer" : 0,
            "byteLength" : 2712,
            "byteOffset" : 17264
        },
        {
            "buffer" : 0,
            "byteLength" : 2712,
            "byteOffset" : 19976
        },
        {
            "buffer" : 0,
            "byteLength" : 1808,
            "byteOffset" : 22688
        },
        {
            "buffer" : 0,
            "byteLength" : 576,
            "byteOffset" : 24496
        },
        {
            "buffer" : 0,
            "byteLength" : 2676,
            "byteOffset" : 25072
        },
        {
            "buffer" : 0,
            "byteLength" : 2676,
            "byteOffset" : 27748
        },
        {
            "buffer" : 0,
            "byteLength" : 1784,
            "byteOffset" : 30424
        },
        {
            "buffer" : 0,
            "byteLength" : 576,
            "byteOffset" : 32208
        },
        {
            "buffer" : 0,
            "byteLength" : 5796,
            "byteOffset" : 32784
        },
        {
            "buffer" : 0,
            "byteLength" : 5796,
            "byteOffset" : 38580
        },
        {
            "buffer" : 0,
            "byteLength" : 3864,
            "byteOffset" : 44376
        },
        {
            "buffer" : 0,
            "byteLength" : 1152,
            "byteOffset" : 48240
        }
    ],
    "buffers" : [
        {
            "byteLength" : 49392,
            "uri" : "data:application/octet-stream;base64,"
        }
    ]
}
